<svg width="39" height="50" viewBox="0 0 39 50" fill="none" xmlns="http://www.w3.org/2000/svg">
<path d="M39 0H33.5V49.5H39V0Z" fill="black"/>
<path d="M11.3727 0H0L0.000253794 49.1773H5.68636H11.3727V43.7131H17.0591V38.249H22.7455V32.7848H28.4318V30.0528H31.275V19.1245H28.4318V16.3924H22.7455V10.9283H17.0591V5.46414H11.3727M17.0591 27.3207V32.7848H11.3727V38.249H5.68636V43.7131V5.46414V10.9283H11.3727V16.3924H17.0591V21.8566H22.7455V27.3207H17.0591Z" fill="black"/>
<path d="M12.661 25.1272C11.3612 27.0575 10.2189 28.6765 9.38454 29.2821C5.51275 32.0924 8.36398 18.7563 8.39353 19.7008C8.40711 20.1351 8.48215 20.4751 8.51259 20.3951C9.03372 19.0254 8.48215 15.9743 9.40244 14.0311C10.6712 11.3518 13.012 16.635 14.5938 17.3249C16.7856 18.2808 17.6707 19.2157 18.7145 19.9916C19.7227 20.741 19.9982 22.082 20.0627 23.6588C20.1223 25.1164 18.0968 25.6399 17.0521 26.5569C15.6613 27.7776 14.8131 28.7918 13.413 30.0546C12.1729 31.1731 10.9351 31.7751 9.65221 32.5794C8.48574 33.5557 7.6514 34.3558 7.14202 35.4457C7.0516 35.7338 6.99252 36.0177 6.93164 36.4822" stroke="black" stroke-width="11" stroke-linecap="round"/>
</svg>
