<svg width="110" height="110" viewBox="0 0 110 110" fill="none" xmlns="http://www.w3.org/2000/svg">
<path d="M61.1111 27.5H73.3333V34.375H79.4444V41.25H91.6667V34.375H97.7778V27.5H110V41.25H103.889V48.125H97.7778V61.875H103.889V68.75H110V82.5H97.7778V75.625H91.6667V68.75H79.4444V75.625H73.3333V82.5H61.1111V68.75H67.2222V61.875H73.3333V48.125H67.2222V41.25H61.1111V27.5ZM24.4444 34.375V27.5H30.5556V20.625H36.6667V13.75H42.7778V6.875H48.8889V0H55V110H48.8889V103.125H42.7778V96.25H36.6667V89.375H30.5556V82.5H24.4444V75.625H0V34.375H24.4444ZM30.5556 48.125H12.2222V61.875H30.5556V68.75H36.6667V75.625H42.7778V34.375H36.6667V41.25H30.5556V48.125Z" fill="black"/>
</svg>
