<svg width="50" height="81" viewBox="0 0 50 81" fill="none" xmlns="http://www.w3.org/2000/svg">
<path d="M14.6875 33.5856C15.4287 35.2135 16.4789 39.394 16.6636 40.4118C17.6395 45.788 19.2331 32.0293 20.796 30.6824C21.4459 30.1225 22.5068 31.109 23.0744 31.7102C24.0142 32.7056 24.4616 34.0267 24.9106 34.8126C25.0854 35.1186 24.4661 33.3684 24.5758 32.2499C24.6235 31.763 25.2028 31.5748 25.6159 31.6453C27.485 31.9644 28.3421 34.2484 29.3498 35.8561C29.9643 36.8366 30.8814 37.39 31.2923 37.9106C31.4908 38.1621 31.3337 38.579 31.3326 38.5846C31.3315 38.5902 31.4054 38.2207 31.5912 38.2151C32.1944 38.1969 32.4511 39.5508 32.563 40.8529C32.6936 42.3715 32.3794 43.5097 31.8218 43.9575C30.5578 44.9729 28.7273 44.4815 27.3065 44.224C26.9583 44.1609 26.7836 43.7426 26.7803 43.3317C26.7725 42.3782 27.892 41.1317 29.0475 40.1968C29.6732 39.6905 30.2858 42.3028 30.8052 44.4322C30.9681 45.0996 31.7681 44.5666 32.2204 43.9687C33.1446 42.7472 33.4945 41.575 33.4979 41.2011C33.5167 39.1036 28.7362 41.7183 20.4646 42.239C18.86 42.34 18.942 43.8635 19.0528 45.0626C19.6137 49.1816 19.6876 50.3751 19.8365 51.2316C19.9115 51.6447 19.9854 52.0142 20.0616 52.8427" stroke="black" stroke-width="11" stroke-linecap="round"/>
<path d="M18 0H0L0.000401688 81H9H18V72H27V63H36V54H45V49.5H49.5V31.5H45V27H36V18H27V9H18M27 45V54H18V63H9V72V9V18H18V27H27V36H36V45H27Z" fill="black"/>
<path d="M36.4078 40.5271C35.8166 40.9705 31.5218 41.7162 24.3307 42.4999C21.1376 42.8479 18.839 42.7663 17.9915 42.4708C17.1439 42.1752 17.809 41.584 18.6319 41.1317C23.1149 38.6676 28.4922 40.151 29.2367 40.9683C30.2227 42.0506 30.4358 44.0987 30.3631 46.1106C30.3034 47.7608 29.2446 48.7338 28.9826 49.0719C28.9513 49.1123 29.0901 48.5972 29.2401 48.5536C29.3901 48.5099 29.5379 48.8794 29.614 49.2914C29.6902 49.7034 29.6902 50.1467 29.3946 50.7077C28.0035 53.3476 20.3438 55.2118 14.9954 57.0177C14.077 57.3278 14.6875 59.5491 14.392 60.7852C14.1205 61.9204 12.6006 58.078 12.1158 54.4415C11.2245 47.7556 11.8505 42.7731 11.9624 41.4698C12.2404 38.2341 12.5961 31.0912 13.0809 26.4683C13.2831 24.5405 13.7157 22.7703 13.9038 21.2756C13.9996 20.5148 13.1985 20.0765 12.8973 19.8907C12.7857 19.8218 13.4829 19.6309 13.8971 19.7026C15.5608 19.9904 16.9178 22.1568 17.7463 25.0285C18.0441 28.637 18.7897 34.4679 19.0159 36.2671C19.0898 36.6421 19.2376 37.0116 19.3899 37.3923" stroke="black" stroke-width="11" stroke-linecap="round"/>
</svg>
