<svg width="39" height="50" viewBox="0 0 39 50" fill="none" xmlns="http://www.w3.org/2000/svg">
<path d="M0 0H5.5V49.5H0V0Z" fill="black"/>
<path d="M27.6273 0H39L38.9997 49.1773H33.3136H27.6273V43.7131H21.9409V38.249H16.2545V32.7848H10.5682V30.0528H7.72501V19.1245H10.5682V16.3924H16.2545V10.9283H21.9409V5.46414H27.6273M21.9409 27.3207V32.7848H27.6273V38.249H33.3136V43.7131V5.46414V10.9283H27.6273V16.3924H21.9409V21.8566H16.2545V27.3207H21.9409Z" fill="black"/>
<path d="M26.339 25.1272C27.6388 27.0575 28.7811 28.6765 29.6155 29.2821C33.4873 32.0924 30.636 18.7563 30.6065 19.7008C30.5929 20.1351 30.5178 20.4751 30.4874 20.3951C29.9663 19.0254 30.5178 15.9743 29.5976 14.0311C28.3288 11.3518 25.988 16.635 24.4062 17.3249C22.2144 18.2808 21.3293 19.2157 20.2855 19.9916C19.2773 20.741 19.0018 22.082 18.9373 23.6588C18.8777 25.1164 20.9032 25.6399 21.9479 26.5569C23.3387 27.7776 24.1869 28.7918 25.587 30.0546C26.8271 31.1731 28.0649 31.7751 29.3478 32.5794C30.5143 33.5557 31.3486 34.3558 31.858 35.4457C31.9484 35.7338 32.0075 36.0177 32.0684 36.4822" stroke="black" stroke-width="11" stroke-linecap="round"/>
</svg>
