<svg width="110" height="110" viewBox="0 0 110 110" fill="none" xmlns="http://www.w3.org/2000/svg">
<path d="M67.2222 0H79.4444V6.11111H85.5556V12.2222H91.6667V18.3333H97.7778V24.4444H103.889V36.6667H110V73.3333H103.889V85.5556H97.7778V91.6667H91.6667V97.7778H85.5556V103.889H79.4444V110H67.2222V97.7778H73.3333V91.6667H79.4444V85.5556H85.5556V79.4444H91.6667V67.2222H97.7778V42.7778H91.6667V30.5556H85.5556V24.4444H79.4444V18.3333H73.3333V12.2222H67.2222V0ZM73.3333 30.5556V36.6667H79.4444V48.8889H85.5556V61.1111H79.4444V73.3333H73.3333V79.4444H67.2222V30.5556H73.3333ZM0 36.6667H24.4444V30.5556H30.5556V24.4444H36.6667V18.3333H42.7778V12.2222H48.8889V6.11111H55V103.889H48.8889V97.7778H42.7778V91.6667H36.6667V85.5556H30.5556V79.4444H24.4444V73.3333H0V36.6667ZM12.2222 48.8889V61.1111H30.5556V67.2222H36.6667V73.3333H42.7778V36.6667H36.6667V42.7778H30.5556V48.8889H12.2222Z" fill="black"/>
</svg>
